<mxfile host="Electron" agent="Mozilla/5.0 (Windows NT 10.0; Win64; x64) AppleWebKit/537.36 (KHTML, like Gecko) draw.io/24.7.5 Chrome/126.0.6478.183 Electron/31.3.0 Safari/537.36" version="24.7.5">
  <diagram name="Dockerfile" id="dg9NJOjsQ_4QshscNicl">
    <mxGraphModel dx="1960" dy="480" grid="1" gridSize="10" guides="1" tooltips="1" connect="1" arrows="1" fold="1" page="1" pageScale="1" pageWidth="850" pageHeight="1100" math="0" shadow="0">
      <root>
        <mxCell id="0" />
        <mxCell id="1" parent="0" />
        <mxCell id="0f6L9ot706pyGFwkmvsn-1" value="&lt;font style=&quot;font-size: 18px;&quot;&gt;&lt;b&gt;FROM &lt;/b&gt;node:16-alpine&lt;/font&gt;" style="rounded=0;whiteSpace=wrap;html=1;fillColor=#dae8fc;strokeColor=#6c8ebf;" parent="1" vertex="1">
          <mxGeometry x="-740" y="110" width="220" height="60" as="geometry" />
        </mxCell>
        <mxCell id="0f6L9ot706pyGFwkmvsn-2" value="&lt;font style=&quot;font-size: 18px;&quot;&gt;&lt;b&gt;WORKDIR &lt;/b&gt;/usr/src/app&lt;/font&gt;" style="rounded=0;whiteSpace=wrap;html=1;fillColor=#dae8fc;strokeColor=#6c8ebf;" parent="1" vertex="1">
          <mxGeometry x="-740" y="170" width="220" height="60" as="geometry" />
        </mxCell>
        <mxCell id="0f6L9ot706pyGFwkmvsn-3" value="&lt;font style=&quot;font-size: 18px;&quot;&gt;&lt;b&gt;COPY &lt;/b&gt;app.js .&lt;/font&gt;" style="rounded=0;whiteSpace=wrap;html=1;fillColor=#dae8fc;strokeColor=#6c8ebf;" parent="1" vertex="1">
          <mxGeometry x="-740" y="230" width="220" height="60" as="geometry" />
        </mxCell>
        <mxCell id="0f6L9ot706pyGFwkmvsn-4" value="&lt;font style=&quot;font-size: 18px;&quot;&gt;Use &lt;b&gt;node:16-alpine &lt;/b&gt;image, it&amp;nbsp;includes everything needed to run a Node.js app.&lt;/font&gt;" style="rounded=0;whiteSpace=wrap;html=1;" parent="1" vertex="1">
          <mxGeometry x="-520" y="110" width="720" height="60" as="geometry" />
        </mxCell>
        <mxCell id="0f6L9ot706pyGFwkmvsn-5" value="&lt;font style=&quot;font-size: 18px;&quot;&gt;Set the folder inside the container to &lt;code&gt;&lt;b&gt;/usr/src/app&lt;/b&gt;&lt;/code&gt; where the app files will go&lt;/font&gt;" style="rounded=0;whiteSpace=wrap;html=1;" parent="1" vertex="1">
          <mxGeometry x="-520" y="170" width="720" height="60" as="geometry" />
        </mxCell>
        <mxCell id="0f6L9ot706pyGFwkmvsn-6" value="&lt;font style=&quot;font-size: 18px;&quot;&gt;&lt;b&gt;EXPOSE &lt;/b&gt;3000&lt;/font&gt;" style="rounded=0;whiteSpace=wrap;html=1;fillColor=#dae8fc;strokeColor=#6c8ebf;" parent="1" vertex="1">
          <mxGeometry x="-740" y="290" width="220" height="60" as="geometry" />
        </mxCell>
        <mxCell id="0f6L9ot706pyGFwkmvsn-7" value="&lt;code style=&quot;&quot;&gt;&lt;font style=&quot;font-size: 18px;&quot;&gt;&lt;b&gt;CMD [&quot;node&quot;, &quot;app.js&quot;]&lt;/b&gt;&lt;/font&gt;&lt;/code&gt;" style="rounded=0;whiteSpace=wrap;html=1;fillColor=#dae8fc;strokeColor=#6c8ebf;" parent="1" vertex="1">
          <mxGeometry x="-740" y="350" width="220" height="60" as="geometry" />
        </mxCell>
        <mxCell id="0f6L9ot706pyGFwkmvsn-8" value="&lt;font style=&quot;font-size: 18px;&quot;&gt;Copy the &lt;code&gt;app.js&lt;/code&gt; file from our computer into  into the &lt;b&gt;current folder&lt;/b&gt; of container&lt;/font&gt;" style="rounded=0;whiteSpace=wrap;html=1;" parent="1" vertex="1">
          <mxGeometry x="-520" y="230" width="720" height="60" as="geometry" />
        </mxCell>
        <mxCell id="0f6L9ot706pyGFwkmvsn-9" value="&lt;font style=&quot;font-size: 18px;&quot;&gt;Opens the container&#39;s port &lt;b&gt;3000 &lt;/b&gt;for external access&lt;/font&gt;" style="rounded=0;whiteSpace=wrap;html=1;" parent="1" vertex="1">
          <mxGeometry x="-520" y="290" width="720" height="60" as="geometry" />
        </mxCell>
        <mxCell id="0f6L9ot706pyGFwkmvsn-10" value="&lt;font style=&quot;font-size: 18px;&quot;&gt;Run the app by executing &lt;code&gt;node app.js&lt;/code&gt; when the container starts.&lt;/font&gt;" style="rounded=0;whiteSpace=wrap;html=1;" parent="1" vertex="1">
          <mxGeometry x="-520" y="350" width="720" height="60" as="geometry" />
        </mxCell>
      </root>
    </mxGraphModel>
  </diagram>
</mxfile>
